<mxfile host="app.diagrams.net" agent="Mozilla/5.0 (Windows NT 10.0; Win64; x64) AppleWebKit/537.36 (KHTML, like Gecko) Chrome/127.0.0.0 Safari/537.36" version="24.7.8">
  <diagram name="第 1 页" id="_-ttwn71VkwPolnGbDPi">
    <mxGraphModel dx="1434" dy="738" grid="1" gridSize="10" guides="1" tooltips="1" connect="1" arrows="1" fold="1" page="1" pageScale="1" pageWidth="827" pageHeight="1169" math="0" shadow="0">
      <root>
        <mxCell id="0" />
        <mxCell id="1" parent="0" />
        <mxCell id="TQ5MSYVr8oGBW4lv90zJ-3" value="" style="rounded=1;whiteSpace=wrap;html=1;arcSize=21;" vertex="1" parent="1">
          <mxGeometry x="60" y="120" width="60" height="400" as="geometry" />
        </mxCell>
        <mxCell id="TQ5MSYVr8oGBW4lv90zJ-4" value="" style="rounded=1;whiteSpace=wrap;html=1;arcSize=5;" vertex="1" parent="1">
          <mxGeometry x="130" y="120" width="420" height="400" as="geometry" />
        </mxCell>
        <mxCell id="TQ5MSYVr8oGBW4lv90zJ-5" value="" style="rounded=1;whiteSpace=wrap;html=1;arcSize=21;" vertex="1" parent="1">
          <mxGeometry x="560" y="120" width="60" height="400" as="geometry" />
        </mxCell>
        <mxCell id="TQ5MSYVr8oGBW4lv90zJ-6" value="input" style="text;html=1;align=center;verticalAlign=middle;whiteSpace=wrap;rounded=0;fontFamily=Georgia;fontSize=16;" vertex="1" parent="1">
          <mxGeometry x="60" y="530" width="60" height="30" as="geometry" />
        </mxCell>
        <mxCell id="TQ5MSYVr8oGBW4lv90zJ-7" value="hidden layers" style="text;html=1;align=center;verticalAlign=middle;whiteSpace=wrap;rounded=0;fontSize=16;fontFamily=Georgia;fontStyle=0" vertex="1" parent="1">
          <mxGeometry x="300" y="530" width="140" height="30" as="geometry" />
        </mxCell>
        <mxCell id="TQ5MSYVr8oGBW4lv90zJ-8" value="output" style="text;html=1;align=center;verticalAlign=middle;whiteSpace=wrap;rounded=0;fontFamily=Georgia;fontSize=16;" vertex="1" parent="1">
          <mxGeometry x="620" y="530" width="60" height="30" as="geometry" />
        </mxCell>
        <mxCell id="TQ5MSYVr8oGBW4lv90zJ-68" style="edgeStyle=orthogonalEdgeStyle;rounded=0;orthogonalLoop=1;jettySize=auto;html=1;exitX=1;exitY=0.5;exitDx=0;exitDy=0;" edge="1" parent="1" source="TQ5MSYVr8oGBW4lv90zJ-9" target="TQ5MSYVr8oGBW4lv90zJ-26">
          <mxGeometry relative="1" as="geometry" />
        </mxCell>
        <mxCell id="TQ5MSYVr8oGBW4lv90zJ-69" style="edgeStyle=orthogonalEdgeStyle;rounded=0;orthogonalLoop=1;jettySize=auto;html=1;exitX=1;exitY=0.5;exitDx=0;exitDy=0;entryX=0;entryY=0.5;entryDx=0;entryDy=0;" edge="1" parent="1" source="TQ5MSYVr8oGBW4lv90zJ-9" target="TQ5MSYVr8oGBW4lv90zJ-27">
          <mxGeometry relative="1" as="geometry" />
        </mxCell>
        <mxCell id="TQ5MSYVr8oGBW4lv90zJ-9" value="" style="ellipse;whiteSpace=wrap;html=1;aspect=fixed;" vertex="1" parent="1">
          <mxGeometry x="75" y="155" width="30" height="30" as="geometry" />
        </mxCell>
        <mxCell id="TQ5MSYVr8oGBW4lv90zJ-11" value="" style="ellipse;whiteSpace=wrap;html=1;aspect=fixed;" vertex="1" parent="1">
          <mxGeometry x="75" y="205" width="30" height="30" as="geometry" />
        </mxCell>
        <mxCell id="TQ5MSYVr8oGBW4lv90zJ-13" value="" style="ellipse;whiteSpace=wrap;html=1;aspect=fixed;" vertex="1" parent="1">
          <mxGeometry x="75" y="255" width="30" height="30" as="geometry" />
        </mxCell>
        <mxCell id="TQ5MSYVr8oGBW4lv90zJ-14" value="" style="ellipse;whiteSpace=wrap;html=1;aspect=fixed;" vertex="1" parent="1">
          <mxGeometry x="75" y="305" width="30" height="30" as="geometry" />
        </mxCell>
        <mxCell id="TQ5MSYVr8oGBW4lv90zJ-15" value="" style="ellipse;whiteSpace=wrap;html=1;aspect=fixed;" vertex="1" parent="1">
          <mxGeometry x="75" y="355" width="30" height="30" as="geometry" />
        </mxCell>
        <mxCell id="TQ5MSYVr8oGBW4lv90zJ-16" value="" style="ellipse;whiteSpace=wrap;html=1;aspect=fixed;" vertex="1" parent="1">
          <mxGeometry x="75" y="405" width="30" height="30" as="geometry" />
        </mxCell>
        <mxCell id="TQ5MSYVr8oGBW4lv90zJ-17" value="" style="ellipse;whiteSpace=wrap;html=1;aspect=fixed;" vertex="1" parent="1">
          <mxGeometry x="75" y="455" width="30" height="30" as="geometry" />
        </mxCell>
        <mxCell id="TQ5MSYVr8oGBW4lv90zJ-19" value="" style="ellipse;whiteSpace=wrap;html=1;aspect=fixed;" vertex="1" parent="1">
          <mxGeometry x="575" y="155" width="30" height="30" as="geometry" />
        </mxCell>
        <mxCell id="TQ5MSYVr8oGBW4lv90zJ-20" value="" style="ellipse;whiteSpace=wrap;html=1;aspect=fixed;" vertex="1" parent="1">
          <mxGeometry x="575" y="205" width="30" height="30" as="geometry" />
        </mxCell>
        <mxCell id="TQ5MSYVr8oGBW4lv90zJ-21" value="" style="ellipse;whiteSpace=wrap;html=1;aspect=fixed;" vertex="1" parent="1">
          <mxGeometry x="575" y="255" width="30" height="30" as="geometry" />
        </mxCell>
        <mxCell id="TQ5MSYVr8oGBW4lv90zJ-22" value="" style="ellipse;whiteSpace=wrap;html=1;aspect=fixed;" vertex="1" parent="1">
          <mxGeometry x="575" y="305" width="30" height="30" as="geometry" />
        </mxCell>
        <mxCell id="TQ5MSYVr8oGBW4lv90zJ-23" value="" style="ellipse;whiteSpace=wrap;html=1;aspect=fixed;" vertex="1" parent="1">
          <mxGeometry x="575" y="355" width="30" height="30" as="geometry" />
        </mxCell>
        <mxCell id="TQ5MSYVr8oGBW4lv90zJ-24" value="" style="ellipse;whiteSpace=wrap;html=1;aspect=fixed;" vertex="1" parent="1">
          <mxGeometry x="575" y="405" width="30" height="30" as="geometry" />
        </mxCell>
        <mxCell id="TQ5MSYVr8oGBW4lv90zJ-25" value="" style="ellipse;whiteSpace=wrap;html=1;aspect=fixed;" vertex="1" parent="1">
          <mxGeometry x="575" y="455" width="30" height="30" as="geometry" />
        </mxCell>
        <mxCell id="TQ5MSYVr8oGBW4lv90zJ-26" value="" style="ellipse;whiteSpace=wrap;html=1;aspect=fixed;" vertex="1" parent="1">
          <mxGeometry x="160" y="155" width="30" height="30" as="geometry" />
        </mxCell>
        <mxCell id="TQ5MSYVr8oGBW4lv90zJ-27" value="" style="ellipse;whiteSpace=wrap;html=1;aspect=fixed;" vertex="1" parent="1">
          <mxGeometry x="160" y="205" width="30" height="30" as="geometry" />
        </mxCell>
        <mxCell id="TQ5MSYVr8oGBW4lv90zJ-28" value="" style="ellipse;whiteSpace=wrap;html=1;aspect=fixed;" vertex="1" parent="1">
          <mxGeometry x="160" y="255" width="30" height="30" as="geometry" />
        </mxCell>
        <mxCell id="TQ5MSYVr8oGBW4lv90zJ-29" value="" style="ellipse;whiteSpace=wrap;html=1;aspect=fixed;" vertex="1" parent="1">
          <mxGeometry x="160" y="305" width="30" height="30" as="geometry" />
        </mxCell>
        <mxCell id="TQ5MSYVr8oGBW4lv90zJ-30" value="" style="ellipse;whiteSpace=wrap;html=1;aspect=fixed;" vertex="1" parent="1">
          <mxGeometry x="160" y="355" width="30" height="30" as="geometry" />
        </mxCell>
        <mxCell id="TQ5MSYVr8oGBW4lv90zJ-31" value="" style="ellipse;whiteSpace=wrap;html=1;aspect=fixed;" vertex="1" parent="1">
          <mxGeometry x="160" y="405" width="30" height="30" as="geometry" />
        </mxCell>
        <mxCell id="TQ5MSYVr8oGBW4lv90zJ-32" value="" style="ellipse;whiteSpace=wrap;html=1;aspect=fixed;" vertex="1" parent="1">
          <mxGeometry x="160" y="455" width="30" height="30" as="geometry" />
        </mxCell>
        <mxCell id="TQ5MSYVr8oGBW4lv90zJ-33" value="" style="ellipse;whiteSpace=wrap;html=1;aspect=fixed;" vertex="1" parent="1">
          <mxGeometry x="220" y="155" width="30" height="30" as="geometry" />
        </mxCell>
        <mxCell id="TQ5MSYVr8oGBW4lv90zJ-34" value="" style="ellipse;whiteSpace=wrap;html=1;aspect=fixed;" vertex="1" parent="1">
          <mxGeometry x="220" y="205" width="30" height="30" as="geometry" />
        </mxCell>
        <mxCell id="TQ5MSYVr8oGBW4lv90zJ-35" value="" style="ellipse;whiteSpace=wrap;html=1;aspect=fixed;" vertex="1" parent="1">
          <mxGeometry x="220" y="255" width="30" height="30" as="geometry" />
        </mxCell>
        <mxCell id="TQ5MSYVr8oGBW4lv90zJ-36" value="" style="ellipse;whiteSpace=wrap;html=1;aspect=fixed;" vertex="1" parent="1">
          <mxGeometry x="220" y="305" width="30" height="30" as="geometry" />
        </mxCell>
        <mxCell id="TQ5MSYVr8oGBW4lv90zJ-37" value="" style="ellipse;whiteSpace=wrap;html=1;aspect=fixed;" vertex="1" parent="1">
          <mxGeometry x="220" y="355" width="30" height="30" as="geometry" />
        </mxCell>
        <mxCell id="TQ5MSYVr8oGBW4lv90zJ-38" value="" style="ellipse;whiteSpace=wrap;html=1;aspect=fixed;" vertex="1" parent="1">
          <mxGeometry x="220" y="405" width="30" height="30" as="geometry" />
        </mxCell>
        <mxCell id="TQ5MSYVr8oGBW4lv90zJ-39" value="" style="ellipse;whiteSpace=wrap;html=1;aspect=fixed;" vertex="1" parent="1">
          <mxGeometry x="220" y="455" width="30" height="30" as="geometry" />
        </mxCell>
        <mxCell id="TQ5MSYVr8oGBW4lv90zJ-54" value="" style="ellipse;whiteSpace=wrap;html=1;aspect=fixed;" vertex="1" parent="1">
          <mxGeometry x="430" y="155" width="30" height="30" as="geometry" />
        </mxCell>
        <mxCell id="TQ5MSYVr8oGBW4lv90zJ-55" value="" style="ellipse;whiteSpace=wrap;html=1;aspect=fixed;" vertex="1" parent="1">
          <mxGeometry x="430" y="205" width="30" height="30" as="geometry" />
        </mxCell>
        <mxCell id="TQ5MSYVr8oGBW4lv90zJ-56" value="" style="ellipse;whiteSpace=wrap;html=1;aspect=fixed;" vertex="1" parent="1">
          <mxGeometry x="430" y="255" width="30" height="30" as="geometry" />
        </mxCell>
        <mxCell id="TQ5MSYVr8oGBW4lv90zJ-57" value="" style="ellipse;whiteSpace=wrap;html=1;aspect=fixed;" vertex="1" parent="1">
          <mxGeometry x="430" y="305" width="30" height="30" as="geometry" />
        </mxCell>
        <mxCell id="TQ5MSYVr8oGBW4lv90zJ-58" value="" style="ellipse;whiteSpace=wrap;html=1;aspect=fixed;" vertex="1" parent="1">
          <mxGeometry x="430" y="355" width="30" height="30" as="geometry" />
        </mxCell>
        <mxCell id="TQ5MSYVr8oGBW4lv90zJ-59" value="" style="ellipse;whiteSpace=wrap;html=1;aspect=fixed;" vertex="1" parent="1">
          <mxGeometry x="430" y="405" width="30" height="30" as="geometry" />
        </mxCell>
        <mxCell id="TQ5MSYVr8oGBW4lv90zJ-60" value="" style="ellipse;whiteSpace=wrap;html=1;aspect=fixed;" vertex="1" parent="1">
          <mxGeometry x="430" y="455" width="30" height="30" as="geometry" />
        </mxCell>
        <mxCell id="TQ5MSYVr8oGBW4lv90zJ-61" value="" style="ellipse;whiteSpace=wrap;html=1;aspect=fixed;" vertex="1" parent="1">
          <mxGeometry x="490" y="155" width="30" height="30" as="geometry" />
        </mxCell>
        <mxCell id="TQ5MSYVr8oGBW4lv90zJ-62" value="" style="ellipse;whiteSpace=wrap;html=1;aspect=fixed;" vertex="1" parent="1">
          <mxGeometry x="490" y="205" width="30" height="30" as="geometry" />
        </mxCell>
        <mxCell id="TQ5MSYVr8oGBW4lv90zJ-63" value="" style="ellipse;whiteSpace=wrap;html=1;aspect=fixed;" vertex="1" parent="1">
          <mxGeometry x="490" y="255" width="30" height="30" as="geometry" />
        </mxCell>
        <mxCell id="TQ5MSYVr8oGBW4lv90zJ-64" value="" style="ellipse;whiteSpace=wrap;html=1;aspect=fixed;" vertex="1" parent="1">
          <mxGeometry x="490" y="305" width="30" height="30" as="geometry" />
        </mxCell>
        <mxCell id="TQ5MSYVr8oGBW4lv90zJ-65" value="" style="ellipse;whiteSpace=wrap;html=1;aspect=fixed;" vertex="1" parent="1">
          <mxGeometry x="490" y="355" width="30" height="30" as="geometry" />
        </mxCell>
        <mxCell id="TQ5MSYVr8oGBW4lv90zJ-66" value="" style="ellipse;whiteSpace=wrap;html=1;aspect=fixed;" vertex="1" parent="1">
          <mxGeometry x="490" y="405" width="30" height="30" as="geometry" />
        </mxCell>
        <mxCell id="TQ5MSYVr8oGBW4lv90zJ-67" value="" style="ellipse;whiteSpace=wrap;html=1;aspect=fixed;" vertex="1" parent="1">
          <mxGeometry x="490" y="455" width="30" height="30" as="geometry" />
        </mxCell>
      </root>
    </mxGraphModel>
  </diagram>
</mxfile>
